<?xml version="1.0" standalone="no"?>
<!DOCTYPE svg PUBLIC "-//W3C//DTD SVG 20010904//EN"
 "http://www.w3.org/TR/2001/REC-SVG-20010904/DTD/svg10.dtd">
<svg version="1.0" xmlns="http://www.w3.org/2000/svg"
 width="4676.000000pt" height="5266.000000pt" viewBox="0 0 4676.000000 5266.000000"
 preserveAspectRatio="xMidYMid meet">

<g transform="translate(0.000000,5266.000000) scale(0.100000,-0.100000)"
fill="#000000" stroke="none">
<path d="M29495 46088 c-202 -1143 -391 -2264 -381 -2270 26 -17 54 -8 60 20
4 15 96 544 206 1176 153 882 197 1152 187 1158 -6 4 -22 8 -34 8 -19 0 -23
-9 -38 -92z"/>
<path d="M18716 46037 c-16 -12 -14 -40 44 -537 128 -1100 389 -3250 396
-3258 3 -5 325 24 549 49 1457 162 2277 546 2620 1229 123 246 175 495 174
835 l-1 190 -13 -85 c-40 -274 -126 -504 -268 -715 -79 -116 -291 -329 -417
-417 -435 -306 -1040 -499 -1920 -613 -185 -24 -551 -60 -670 -67 l-55 -3 -57
460 c-86 682 -229 1872 -294 2435 -32 272 -60 498 -64 503 -3 4 -14 1 -24 -6z"/>
<path d="M39956 45813 c211 -321 572 -1001 776 -1463 342 -776 634 -1644 856
-2547 l47 -191 35 -6 c19 -2 95 -8 167 -12 l133 -7 -16 54 c-428 1485 -941
2640 -1629 3669 -142 213 -371 530 -382 530 -3 0 3 -12 13 -27z"/>
<path d="M20100 45577 l-95 -12 3 -45 c1 -25 7 -103 12 -174 6 -71 10 -141 10
-156 l0 -27 63 10 c34 5 134 9 222 9 127 1 182 -4 264 -21 329 -69 537 -236
617 -495 l19 -60 7 40 c13 73 9 272 -8 351 -22 109 -49 173 -106 259 -101 152
-280 256 -528 310 -96 20 -356 26 -480 11z"/>
<path d="M31024 45374 c-33 -116 8 -398 60 -409 12 -2 226 -55 476 -117 l455
-113 -3 -34 -4 -33 32 18 c51 30 162 146 199 208 61 102 87 301 59 441 l-11
58 -25 -49 c-83 -164 -259 -305 -431 -344 -121 -28 -315 8 -480 89 -111 54
-220 161 -271 264 l-39 80 -17 -59z"/>
<path d="M24235 44914 c-108 -23 -226 -83 -294 -151 -97 -98 -129 -195 -111
-336 5 -43 15 -96 21 -117 l12 -39 63 68 c168 182 491 242 714 134 65 -31 171
-130 208 -192 l26 -45 13 32 c24 59 35 174 23 248 -31 194 -193 362 -388 403
-72 15 -202 13 -287 -5z"/>
<path d="M13560 44306 c-422 -170 -553 -225 -561 -234 -8 -9 117 -347 128
-345 4 1 100 39 213 86 113 46 324 130 470 187 146 57 266 104 268 105 6 5
-145 339 -154 341 -5 2 -169 -61 -364 -140z"/>
<path d="M31911 44314 c-16 -63 -571 -2156 -576 -2175 -5 -14 -51 -4 -333 66
-180 46 -375 94 -434 107 l-107 25 -10 -46 c-37 -173 -64 -331 -59 -337 4 -3
125 -34 270 -69 145 -34 353 -86 462 -114 109 -29 202 -49 206 -44 9 11 693
2594 687 2599 -2 2 -24 10 -49 18 l-46 14 -11 -44z"/>
<path d="M22715 44235 c-49 -487 212 -975 696 -1300 99 -67 311 -172 424 -210
173 -59 277 -76 482 -82 210 -6 318 6 483 54 560 162 1035 633 1151 1143 23
98 35 320 22 400 l-8 55 -23 -85 c-64 -239 -201 -468 -403 -669 -265 -266
-630 -446 -993 -492 -131 -16 -359 -6 -491 21 -451 94 -870 371 -1115 736
-104 155 -152 264 -208 474 -8 32 -9 29 -17 -45z"/>
<path d="M15393 43700 c-187 -49 -352 -170 -423 -311 -59 -115 -62 -220 -10
-336 l20 -46 29 39 c70 98 211 193 361 245 87 29 231 32 310 5 118 -39 211
-108 273 -203 l42 -63 13 37 c20 55 27 210 12 274 -40 175 -180 318 -355 364
-79 20 -184 18 -272 -5z"/>
<path d="M32947 43700 c-41 -12 -56 -28 -63 -66 -9 -49 11 -89 65 -128 67 -49
90 -59 287 -126 194 -67 330 -130 446 -206 96 -63 244 -212 293 -294 21 -36
40 -67 41 -68 6 -8 503 364 504 376 0 16 -18 43 -109 165 -45 61 -71 87 -82
84 -9 -2 -93 -62 -188 -132 l-172 -127 -107 103 c-175 170 -320 270 -504 348
-167 71 -321 98 -411 71z"/>
<path d="M36315 43524 c-26 -74 -46 -137 -43 -139 2 -2 30 -16 61 -30 42 -18
59 -22 62 -13 63 179 93 274 87 279 -4 3 -32 13 -64 21 l-56 16 -47 -134z"/>
<path d="M10188 43534 c-49 -24 -88 -46 -88 -48 0 -2 62 -111 138 -242 77
-132 194 -335 261 -452 68 -117 126 -211 130 -210 280 144 1104 549 1107 545
3 -3 109 -257 235 -564 126 -307 233 -567 239 -578 5 -11 129 -312 276 -670
146 -357 270 -659 275 -670 4 -11 35 -85 67 -165 33 -79 64 -146 70 -148 7 -2
80 34 164 79 155 83 902 463 926 470 9 3 -5 52 -49 174 -33 94 -62 171 -64
173 -4 5 -467 -229 -749 -378 -126 -66 -230 -119 -231 -118 -3 2 -817 1978
-1104 2679 l-52 127 -172 -83 c-95 -45 -345 -169 -556 -274 -211 -106 -387
-189 -391 -184 -5 4 -81 134 -170 288 -88 154 -164 283 -168 287 -4 3 -46 -14
-94 -38z"/>
<path d="M32037 43503 c-16 -25 -29 -156 -24 -232 7 -106 35 -199 94 -314 45
-87 46 -88 69 -72 32 21 37 19 57 -14 57 -98 225 -235 370 -306 96 -46 242
-89 338 -100 73 -9 160 9 187 38 30 32 37 88 18 126 -21 40 -74 66 -276 136
-259 89 -381 159 -534 305 -135 130 -210 235 -266 373 -15 38 -30 65 -33 60z"/>
<path d="M17047 43170 c-3 -8 -11 -40 -18 -70 -34 -156 -134 -384 -232 -530
-216 -323 -535 -573 -872 -684 -553 -181 -1217 -54 -1666 320 -193 161 -319
341 -393 565 -20 59 -36 115 -36 124 0 10 -2 16 -5 13 -4 -3 -10 -48 -16 -99
-33 -320 104 -674 356 -924 435 -431 1160 -597 1758 -404 125 40 312 135 427
216 122 87 326 292 412 413 179 253 288 551 303 830 6 104 -6 259 -18 230z"/>
<path d="M34706 42988 c-38 -141 -46 -182 -36 -188 7 -5 56 -25 107 -46 77
-31 96 -36 103 -24 18 29 112 321 107 333 -2 6 -42 27 -88 46 -46 19 -98 40
-115 47 l-30 13 -48 -181z"/>
<path d="M30331 42781 c-46 -207 -87 -386 -92 -398 l-8 -21 -83 19 c-624 142
-1791 347 -2400 422 -31 4 -26 22 -59 -227 -11 -87 -19 -160 -17 -162 2 -1
161 -26 353 -53 688 -99 1279 -204 1948 -347 142 -31 261 -54 263 -51 6 6 266
1169 262 1173 -2 1 -21 7 -43 12 l-40 9 -84 -376z"/>
<path d="M36730 42569 c-25 -99 -48 -185 -51 -191 -5 -7 -95 28 -255 99 -296
132 -440 193 -452 193 -10 0 -343 -799 -366 -879 -25 -84 -21 -205 8 -266 23
-49 24 -49 34 -25 65 164 315 757 320 761 7 7 304 -119 581 -244 69 -31 127
-55 129 -52 6 6 182 725 182 742 0 11 -59 43 -79 43 -4 0 -27 -81 -51 -181z"/>
<path d="M34046 42264 c-4 -16 -27 -69 -51 -119 -115 -238 -378 -415 -735
-491 -120 -26 -418 -26 -544 -1 -314 64 -676 253 -924 482 l-71 66 -88 -57
c-48 -31 -90 -59 -93 -61 -8 -8 59 -126 110 -195 226 -300 701 -578 1098 -643
129 -22 426 -16 539 10 288 64 534 210 655 389 105 154 158 360 138 539 -11
93 -24 124 -34 81z"/>
<path d="M34536 41349 c-4 -13 -9 -74 -13 -134 -17 -309 129 -581 411 -769
111 -73 293 -161 458 -220 324 -116 536 -139 768 -85 113 27 154 47 159 79 2
14 24 193 50 398 42 326 46 372 32 372 -9 0 -21 -4 -27 -8 -6 -4 -21 -86 -33
-182 -12 -96 -24 -182 -27 -191 -3 -11 -40 -29 -102 -49 -87 -30 -111 -34
-242 -38 -188 -5 -281 11 -515 89 -499 167 -778 384 -886 688 -22 62 -27 70
-33 50z"/>
<path d="M43216 40726 c10 -42 -16 -218 -47 -310 -53 -160 -150 -298 -282
-403 -39 -31 -74 -58 -76 -60 -2 -1 -16 -212 -32 -470 -108 -1747 -251 -3836
-274 -3995 -5 -36 -3 -39 85 -118 102 -91 441 -362 446 -357 8 8 94 1204 164
2287 35 537 120 1897 120 1915 0 7 19 25 43 40 62 42 154 132 202 200 292 411
179 982 -246 1244 -94 58 -112 63 -103 27z"/>
<path d="M2769 37768 c-19 -45 -17 -234 5 -378 36 -245 125 -644 238 -1069
l51 -194 1046 -1498 c575 -824 1406 -2014 1846 -2645 440 -630 805 -1154 811
-1162 10 -14 16 -7 42 43 44 88 114 178 218 282 l92 93 -512 732 c-282 403
-573 819 -646 923 -147 211 -2384 3415 -2432 3483 l-30 44 38 -25 c104 -64
191 -61 274 11 78 66 106 171 76 282 -8 30 -14 56 -13 56 1 1 469 -667 1040
-1485 571 -817 1206 -1725 1410 -2017 205 -293 545 -781 757 -1085 212 -304
399 -571 415 -595 l30 -42 95 45 c121 58 245 99 340 114 41 6 76 12 78 14 3 3
-2022 2904 -3276 4693 l-437 624 -235 137 c-557 326 -1053 590 -1189 634 -29
9 -68 17 -86 17 -27 0 -35 -5 -46 -32z m46 -214 c13 -104 29 -213 35 -243 5
-29 10 -56 10 -58 0 -2 37 28 83 67 45 39 88 76 96 82 28 23 208 106 263 122
56 16 59 16 100 -5 89 -45 392 -217 650 -367 l267 -155 23 -51 c16 -37 23 -70
23 -118 0 -57 -3 -70 -25 -93 -37 -39 -73 -55 -128 -55 -90 0 -247 69 -356
157 -100 81 -104 83 -67 30 91 -133 119 -269 75 -373 -18 -43 -95 -111 -140
-123 -51 -14 -62 -14 -118 5 -51 18 -154 106 -197 169 -13 19 -27 35 -30 35
-3 0 6 -33 20 -72 21 -60 26 -91 26 -178 0 -90 -3 -111 -22 -147 -50 -93 -132
-143 -204 -123 -54 15 -126 65 -132 91 -2 13 -45 184 -95 379 -106 417 -145
608 -166 820 -19 191 -31 407 -22 399 4 -4 18 -92 31 -195z"/>
<path d="M14377 37628 c57 -89 101 -198 119 -298 20 -110 20 -2080 0 -2190
-18 -100 -62 -209 -119 -298 -26 -40 -50 -84 -53 -100 -9 -37 -43 -72 -69 -72
-12 0 -53 -21 -91 -46 -83 -56 -150 -87 -252 -117 l-77 -22 -1080 0 -1080 0
-78 23 c-42 12 -80 22 -84 22 -15 0 94 -103 152 -145 80 -57 146 -89 252 -122
l88 -28 1075 0 c1222 0 1126 -6 1320 87 95 46 115 61 205 152 86 86 108 115
148 196 26 52 57 131 70 175 l22 80 0 1070 0 1070 -23 79 c-64 226 -212 411
-413 516 l-79 41 47 -73z"/>
<path d="M35945 34584 c-11 -21 -37 -51 -58 -68 l-39 -31 -9909 -3 -9909 -2 0
-57 c0 -73 31 -129 92 -163 l43 -25 9979 -3 c6909 -1 9991 1 10017 8 156 42
187 258 51 351 -31 21 -49 24 -141 27 l-106 3 -20 -37z"/>
<path d="M42986 33696 c-6 -23 -64 -83 -101 -104 -16 -9 -11 -19 52 -103 149
-200 264 -396 343 -581 186 -441 185 -798 -4 -1061 -73 -102 -168 -178 -311
-248 -186 -91 -346 -130 -694 -168 -1185 -133 -2523 64 -3762 554 -167 67
-278 115 -521 228 -43 20 -78 34 -78 31 0 -16 77 -108 143 -171 336 -319 1049
-576 1958 -707 850 -123 2028 -152 2629 -66 276 40 533 114 702 202 260 136
383 347 350 601 -27 211 -215 713 -422 1129 -98 195 -260 488 -271 488 -4 0
-10 -11 -13 -24z"/>
<path d="M44769 33080 c187 -358 286 -722 306 -1130 14 -267 -41 -464 -185
-668 -347 -492 -1108 -818 -2243 -962 -87 -11 -170 -20 -186 -20 l-28 0 -7
-307 c-10 -461 -45 -1358 -62 -1579 l-6 -82 58 -37 c77 -49 220 -194 268 -271
l38 -62 81 -20 c45 -12 83 -20 84 -18 6 5 33 663 43 1041 6 215 13 441 16 503
l6 112 31 0 c48 0 332 37 502 66 846 142 1440 393 1790 755 143 147 227 286
281 464 27 86 28 99 28 300 0 240 -15 366 -71 590 -101 404 -315 813 -652
1243 -147 187 -148 189 -92 82z"/>
<path d="M14354 31898 c39 -56 90 -155 111 -217 45 -132 46 -168 43 -1266 l-3
-1040 -23 -73 c-25 -82 -81 -200 -119 -250 -13 -18 -31 -53 -40 -77 -16 -47
-44 -75 -76 -75 -10 0 -45 -18 -78 -41 -82 -56 -169 -95 -269 -121 l-85 -23
-1060 0 -1060 0 -84 23 c-47 12 -89 22 -95 22 -21 0 92 -103 169 -155 92 -61
175 -97 278 -120 64 -14 192 -15 1157 -13 l1085 3 87 31 c279 100 474 321 539
609 20 88 20 2132 0 2220 -51 228 -193 425 -388 540 -88 51 -115 58 -89 23z"/>
<path d="M35935 28802 c-20 -31 -45 -55 -75 -69 l-44 -23 -9893 0 -9893 0 0
-50 c0 -84 44 -153 113 -179 20 -8 2986 -11 10023 -11 l9995 0 39 20 c22 11
52 39 67 62 24 35 28 52 28 108 0 56 -4 73 -28 108 -42 64 -87 82 -204 81
l-98 0 -30 -47z"/>
<path d="M41951 27771 c-10 -10 -26 -52 -35 -92 -31 -141 -104 -233 -323 -405
-257 -201 -328 -258 -553 -444 -271 -224 -354 -288 -530 -407 -209 -141 -292
-224 -320 -319 -22 -72 24 -153 104 -185 17 -7 33 -14 34 -15 2 -1 -31 -60
-74 -131 -144 -238 -249 -487 -296 -707 -31 -146 -32 -414 -1 -537 24 -95 72
-221 109 -287 26 -47 23 -62 -16 -97 -27 -24 -139 -164 -267 -334 -23 -31 -53
-69 -65 -85 -13 -16 -40 -54 -62 -85 -21 -31 -75 -105 -120 -166 -45 -60 -90
-121 -99 -135 -9 -14 -49 -73 -89 -131 -154 -226 -474 -705 -481 -719 -4 -8
-43 -71 -86 -140 -90 -140 -98 -154 -249 -405 -93 -155 -185 -316 -295 -520
-129 -238 -283 -590 -331 -759 -115 -398 -6 -552 286 -406 66 33 201 124 279
187 33 27 193 167 330 288 81 72 541 536 626 630 39 44 82 92 95 106 12 14 48
54 78 89 30 35 73 84 96 109 22 25 63 75 90 111 53 71 60 80 99 127 15 18 62
79 105 135 44 57 83 108 87 113 5 6 28 37 52 70 25 33 47 62 51 65 8 7 234
315 288 393 196 284 479 715 546 833 l35 61 113 6 c399 20 766 218 977 526 81
119 211 386 211 434 0 6 -20 -36 -44 -95 -83 -203 -173 -345 -301 -474 -136
-137 -303 -240 -493 -304 -312 -104 -673 -73 -933 80 -286 169 -511 492 -575
828 -18 97 -18 307 1 418 42 243 163 530 337 796 69 107 72 109 142 142 116
54 217 140 365 311 33 39 42 44 36 25 -4 -14 -9 -53 -12 -87 -5 -53 -3 -64 12
-69 23 -9 71 15 138 70 31 25 59 46 62 46 3 0 -12 -26 -33 -57 -111 -164 -174
-319 -176 -430 -1 -80 13 -109 74 -150 97 -66 180 -9 523 359 149 160 204 196
271 177 21 -6 49 -21 62 -34 39 -39 32 -80 -27 -169 -136 -207 -229 -457 -229
-613 1 -63 30 -127 69 -147 52 -27 86 -21 136 25 l45 42 0 -55 c0 -75 25 -152
57 -177 30 -25 91 -28 131 -7 58 30 107 105 143 216 10 30 18 51 19 45 22
-274 77 -459 174 -587 20 -26 36 -55 37 -65 0 -10 3 -13 6 -6 3 9 16 4 41 -15
67 -51 186 -29 202 39 7 29 1 71 -44 314 -55 299 -70 458 -56 585 26 241 138
434 311 537 63 37 170 68 207 58 25 -6 25 -7 -19 -32 -53 -31 -119 -92 -119
-110 0 -10 36 -13 160 -13 l160 0 12 -27 c6 -16 11 -58 11 -94 1 -56 -4 -76
-36 -140 -20 -42 -37 -85 -37 -97 0 -39 22 -71 56 -82 98 -33 237 123 275 308
7 34 16 62 20 62 3 0 9 -16 12 -36 28 -170 207 -252 305 -139 34 38 67 118 77
188 l7 47 109 0 109 0 0 28 c0 45 -57 147 -105 190 -24 21 -71 53 -103 70 -45
24 -62 39 -66 60 -14 56 -128 270 -193 362 -97 135 -294 330 -418 413 -286
189 -641 297 -982 297 l-92 0 16 46 c22 65 13 164 -20 229 -57 112 -166 176
-216 126z m115 -195 c29 -29 34 -41 34 -81 0 -61 -19 -87 -128 -174 -73 -58
-96 -84 -132 -147 -50 -88 -105 -220 -116 -279 -7 -38 -6 -39 13 -25 11 8 56
41 99 72 261 190 538 261 825 212 472 -81 817 -386 968 -858 17 -53 31 -104
31 -113 0 -8 -25 32 -54 91 -90 177 -215 335 -352 446 -69 55 -80 61 -118 58
-84 -6 -81 -86 10 -256 24 -46 40 -82 36 -80 -119 62 -215 101 -282 118 -103
24 -257 27 -359 5 -137 -29 -307 -108 -408 -191 -23 -19 -43 -34 -46 -34 -2 0
-3 19 -3 42 1 37 -2 43 -27 52 -36 13 -98 -3 -207 -55 -167 -79 -300 -179
-510 -384 -211 -205 -329 -236 -271 -71 30 87 142 295 232 432 79 120 107 192
81 208 -5 3 -41 -18 -79 -48 -71 -55 -139 -96 -160 -96 -32 0 -3 64 63 143 13
16 21 33 18 38 -7 11 -22 7 -125 -33 -73 -29 -80 -34 -210 -175 -151 -163
-280 -281 -354 -324 -58 -34 -110 -38 -124 -11 -46 86 188 314 739 719 410
301 698 579 777 750 18 39 38 74 45 76 33 13 62 5 94 -27z m439 -1238 c-49
-35 -138 -110 -198 -168 -182 -174 -281 -315 -377 -537 -63 -144 -120 -242
-161 -277 -36 -31 -42 -31 -64 -9 -24 23 -16 155 14 243 114 332 338 598 614
725 63 29 222 83 251 84 5 1 -31 -27 -79 -61z m667 20 c56 -15 97 -33 146 -68
111 -78 162 -148 162 -225 0 -90 -139 -132 -163 -50 -18 61 -43 100 -85 132
-57 43 -128 63 -226 63 -346 -1 -637 -387 -675 -895 l-7 -90 -8 125 c-7 123 3
290 25 390 59 271 210 478 433 590 125 63 235 71 398 28z m-932 -462 c-70
-159 -140 -358 -164 -466 -9 -41 -24 -85 -34 -96 -26 -33 -57 -39 -81 -15 -58
58 4 258 142 466 48 72 190 256 194 251 2 -1 -24 -65 -57 -140z m-2042 -1862
c131 -179 332 -328 546 -400 59 -20 214 -54 248 -54 19 0 -211 -372 -415 -670
-185 -271 -374 -518 -676 -885 -426 -518 -875 -980 -1346 -1384 -331 -285
-539 -396 -591 -316 -26 40 -14 182 29 330 89 304 310 799 576 1284 343 626
693 1128 1309 1881 185 225 254 302 262 293 3 -4 30 -40 58 -79z"/>
<path d="M4465 27563 c-253 -54 -467 -216 -578 -438 -63 -128 -23 5 -957
-3160 -248 -841 -581 -1969 -740 -2505 -400 -1353 -384 -1290 -384 -1510 -1
-120 3 -158 22 -223 71 -247 255 -454 527 -589 71 -36 192 -80 255 -93 19 -4
496 -141 1060 -305 1836 -533 3125 -907 3215 -931 173 -46 400 -50 564 -9 268
65 497 277 610 563 33 82 224 751 926 3237 229 811 538 1903 686 2425 297
1046 335 1190 348 1318 45 449 -265 834 -774 960 -203 51 -2458 701 -3410 984
-269 80 -535 158 -590 174 -55 15 -140 42 -189 58 -49 17 -125 38 -169 46
-102 19 -328 19 -422 -2z m600 -437 c55 -15 150 -38 210 -51 61 -14 133 -36
160 -50 38 -18 3080 -905 3565 -1039 161 -45 356 -151 438 -239 20 -21 -134
20 -1215 330 -1361 390 -1413 402 -1413 335 0 -9 -9 -26 -21 -38 -33 -35 -235
-727 -241 -826 -5 -70 -3 -78 14 -84 11 -3 41 -19 66 -34 32 -20 206 -76 537
-174 270 -80 832 -247 1250 -371 779 -232 770 -230 862 -211 25 5 65 45 87 86
16 29 216 725 217 755 1 34 26 -32 43 -117 20 -97 20 -201 1 -314 -9 -49 -407
-1440 -886 -3093 -728 -2513 -868 -3006 -855 -3013 11 -6 13 -19 9 -46 -44
-304 -252 -552 -538 -642 -106 -34 -325 -39 -460 -11 -199 41 -425 124 -425
156 0 9 -26 22 -72 35 -40 12 -102 30 -137 41 -35 10 -64 19 -66 19 -2 0 -1
-9 2 -20 15 -56 -61 -65 -162 -20 -56 25 -66 33 -63 52 2 17 11 24 35 28 25 4
-365 120 -1520 453 -853 247 -1590 460 -1637 474 -301 89 -516 289 -580 539
-24 94 -27 267 -6 376 8 40 393 1380 856 2978 487 1677 842 2921 842 2942 -1
21 11 66 25 100 14 35 42 110 63 169 46 128 79 195 136 275 92 130 226 222
384 264 113 30 355 23 495 -14z"/>
<path d="M4087 25905 c-9 -9 -17 -18 -17 -21 0 -3 -67 -238 -150 -522 -82
-285 -150 -527 -150 -538 0 -11 6 -27 13 -36 7 -10 976 -295 2539 -747 2098
-607 2531 -729 2552 -721 14 5 26 12 26 15 0 3 70 247 156 542 127 437 154
541 145 559 -7 17 -29 28 -78 43 -723 212 -4958 1434 -4984 1438 -25 4 -40 0
-52 -12z m2523 -820 c1339 -387 2442 -708 2451 -712 13 -7 -2 -69 -115 -458
-73 -247 -134 -455 -136 -461 -3 -6 -931 258 -2455 699 -1347 390 -2451 711
-2453 712 -5 5 262 925 268 925 3 0 1101 -317 2440 -705z"/>
<path d="M7985 24509 c24 -43 27 -45 125 -73 100 -28 101 -28 140 -11 22 10
40 21 40 24 0 3 -69 26 -153 50 -83 24 -158 46 -164 48 -7 3 -2 -15 12 -38z"/>
<path d="M7912 24418 c-43 -150 -42 -169 7 -144 21 11 30 30 49 98 23 82 23
86 6 121 -10 20 -20 37 -24 37 -3 0 -20 -51 -38 -112z"/>
<path d="M8265 24415 c-35 -21 -42 -32 -62 -97 -27 -86 -28 -107 -9 -134 13
-17 16 -17 29 -4 8 8 23 42 32 75 10 33 26 88 36 123 9 34 17 62 16 61 -1 0
-20 -11 -42 -24z"/>
<path d="M8449 24372 c19 -37 24 -40 125 -70 l106 -31 41 24 42 23 -39 11
c-21 6 -93 26 -159 46 -66 19 -123 35 -128 35 -4 0 1 -17 12 -38z"/>
<path d="M8406 24389 c-29 -85 -66 -234 -61 -250 6 -18 8 -19 35 -2 19 11 32
30 39 57 6 23 17 61 25 87 13 43 13 47 -10 84 -15 26 -25 34 -28 24z"/>
<path d="M8726 24277 c-36 -20 -41 -29 -63 -106 -19 -67 -22 -90 -14 -109 7
-14 18 -22 29 -20 12 2 27 36 54 128 21 68 36 125 35 126 -1 2 -20 -7 -41 -19z"/>
<path d="M7864 24222 c-10 -7 -85 -243 -79 -250 5 -5 61 26 72 40 6 7 21 48
34 91 19 67 20 81 9 102 -14 27 -19 29 -36 17z"/>
<path d="M8162 24123 c-19 -17 -62 -139 -62 -176 0 -9 9 -31 20 -49 l19 -32 9
25 c5 13 22 68 37 121 34 120 27 153 -23 111z"/>
<path d="M8331 24091 c-8 -5 -31 -65 -51 -134 l-36 -125 41 20 c41 20 43 24
67 108 22 78 23 91 11 114 -16 30 -13 29 -32 17z"/>
<path d="M8627 23989 c-17 -17 -32 -48 -47 -101 l-21 -77 22 -43 c12 -24 24
-38 26 -33 1 6 18 63 37 127 27 94 31 121 22 134 -11 15 -15 14 -39 -7z"/>
<path d="M7828 23972 c-16 -10 -28 -19 -28 -23 0 -3 72 -26 160 -51 88 -25
160 -43 160 -40 0 2 -9 21 -21 41 -19 34 -27 38 -118 64 -112 31 -116 31 -153
9z"/>
<path d="M8288 23836 l-38 -22 163 -46 c89 -26 163 -45 165 -44 1 2 -5 19 -14
39 -16 33 -23 37 -123 66 -58 17 -108 31 -111 30 -3 0 -22 -11 -42 -23z"/>
<path d="M3867 24330 c-43 -13 -92 -55 -111 -95 -28 -59 -216 -720 -216 -759
0 -75 49 -149 118 -180 63 -28 834 -246 869 -246 46 0 102 25 140 62 38 37 41
46 157 450 94 323 102 382 67 448 -36 68 -69 82 -512 210 -229 66 -431 120
-450 119 -19 0 -47 -5 -62 -9z m419 -356 c87 -25 162 -49 167 -53 4 -4 -2 -34
-13 -66 -18 -52 -34 -72 -149 -184 -71 -69 -138 -139 -150 -155 l-21 -29 -80
23 c-75 21 -79 24 -68 44 5 11 70 80 143 153 l132 131 -85 24 c-46 13 -86 28
-89 34 -7 19 27 124 41 124 7 0 84 -21 172 -46z"/>
<path d="M5138 23971 c-20 -4 -48 -15 -61 -24 -59 -38 -74 -75 -179 -433 -108
-371 -118 -427 -85 -491 24 -45 81 -88 140 -107 317 -96 791 -226 828 -226 84
1 156 52 187 135 6 17 55 181 108 365 82 286 95 342 90 384 -6 58 -42 116 -88
144 -33 20 -801 245 -868 255 -19 2 -51 1 -72 -2z m422 -371 c46 -23 87 -74
96 -117 8 -42 -12 -97 -45 -126 -25 -21 -27 -26 -15 -42 20 -27 17 -72 -6
-120 -62 -127 -278 -107 -330 30 -25 66 15 156 76 171 22 6 23 8 9 27 -23 33
-19 109 7 142 43 55 137 71 208 35z"/>
<path d="M5452 23498 c-26 -26 2 -78 41 -78 27 0 51 44 37 69 -12 24 -58 29
-78 9z"/>
<path d="M5381 23286 c-6 -7 -9 -20 -5 -29 8 -21 58 -40 83 -32 23 7 28 44 9
63 -16 16 -73 15 -87 -2z"/>
<path d="M6343 23589 c-70 -34 -84 -66 -192 -443 -108 -373 -116 -423 -82
-486 40 -75 60 -84 498 -211 445 -129 489 -137 563 -99 22 11 51 37 64 58 32
48 226 719 226 779 0 47 -21 106 -48 136 -32 36 -88 55 -488 171 -431 125
-468 131 -541 95z m475 -354 c78 -33 112 -86 112 -173 0 -47 -6 -67 -28 -103
-53 -83 -150 -153 -250 -183 l-53 -15 -29 46 c-36 56 -36 60 -7 68 46 13 127
48 127 54 0 4 -16 13 -35 20 -63 22 -108 108 -91 175 9 37 56 87 101 107 49
23 104 24 153 4z"/>
<path d="M6706 23114 c-21 -21 -20 -36 5 -68 23 -29 60 -34 83 -10 28 27 19
62 -21 83 -30 15 -49 14 -67 -5z"/>
<path d="M7604 23231 c-43 -20 -83 -65 -102 -116 -33 -89 -202 -698 -202 -729
0 -69 43 -141 103 -173 16 -8 207 -66 425 -130 433 -127 486 -136 551 -98 73
43 84 67 191 439 102 351 115 416 92 477 -16 40 -58 84 -99 102 -71 32 -838
247 -878 247 -22 0 -59 -9 -81 -19z m475 -395 c28 -29 22 -77 -12 -101 -31
-21 -54 -19 -82 10 -30 30 -31 54 -4 89 26 34 68 34 98 2z m-64 -126 c93 -28
172 -54 176 -58 4 -4 -3 -31 -16 -59 l-24 -52 -48 14 c-26 8 -105 31 -174 51
-69 20 -131 39 -137 43 -19 11 14 111 36 111 9 0 93 -23 187 -50z m-35 -135
c48 -25 49 -76 1 -119 -27 -25 -69 -13 -90 25 -23 41 7 98 57 108 2 1 16 -6
32 -14z"/>
<path d="M3526 23166 c-59 -22 -103 -71 -125 -140 -11 -34 -59 -196 -107 -361
-93 -319 -103 -380 -71 -441 22 -42 66 -78 119 -98 121 -44 813 -236 850 -236
57 1 120 30 150 71 30 40 41 72 153 464 93 320 97 353 60 425 -30 59 -80 83
-311 149 -121 35 -302 88 -404 118 -210 62 -259 69 -314 49z m297 -352 c20 -3
40 -11 43 -16 3 -5 -9 -61 -27 -124 -29 -99 -31 -116 -19 -124 25 -16 28 -12
44 44 15 50 18 54 53 60 53 8 103 7 103 -2 0 -5 -11 -42 -25 -82 -14 -40 -25
-75 -25 -76 0 -1 13 -5 30 -9 41 -9 44 -17 26 -80 l-16 -54 -35 15 c-19 8 -36
14 -38 14 -2 0 -10 -27 -17 -60 -7 -33 -15 -60 -19 -60 -12 0 -110 28 -119 34
-7 4 -4 26 9 63 10 31 18 57 17 58 -2 1 -34 12 -73 25 -38 12 -73 25 -77 29
-5 5 65 288 87 349 3 7 13 11 22 8 10 -3 35 -8 56 -12z"/>
<path d="M4747 22789 c-20 -11 -48 -36 -61 -57 -34 -51 -226 -718 -226 -784 0
-92 55 -161 155 -192 282 -89 785 -226 828 -226 72 0 131 31 163 86 36 61 224
714 224 776 0 60 -28 118 -75 153 -26 21 -136 56 -446 146 -446 129 -489 137
-562 98z m439 -369 c76 -22 139 -42 142 -45 8 -8 -20 -106 -32 -111 -6 -2 -47
7 -90 20 -44 14 -83 23 -88 20 -20 -13 -4 -31 41 -47 86 -30 133 -114 111
-198 -14 -51 -71 -114 -117 -130 -55 -18 -128 -6 -176 28 -36 25 -86 92 -87
115 0 4 25 15 56 24 l57 16 21 -25 c23 -28 47 -35 89 -24 21 6 27 13 27 36 0
39 -24 56 -81 56 -41 0 -54 5 -79 30 l-29 30 36 123 c22 77 41 122 49 122 7 0
75 -18 150 -40z"/>
<path d="M6014 22431 c-76 -35 -87 -60 -200 -449 -57 -196 -104 -375 -104
-397 1 -57 32 -119 78 -152 55 -40 831 -266 912 -266 81 0 136 35 173 108 15
30 200 665 210 720 8 45 -12 122 -40 156 -14 16 -42 38 -62 48 -61 31 -836
251 -883 251 -24 0 -62 -9 -84 -19z m525 -451 c28 -45 29 -51 14 -56 -10 -3
-49 -17 -87 -31 l-69 -26 34 -14 c92 -39 134 -135 94 -213 -50 -96 -207 -122
-291 -48 -47 42 -64 77 -64 138 0 114 104 225 270 286 57 21 66 17 99 -36z"/>
<path d="M6330 21763 c-53 -21 -28 -103 32 -103 46 0 64 67 26 94 -24 17 -33
18 -58 9z"/>
<path d="M7286 22075 c-59 -21 -103 -70 -125 -139 -36 -110 -182 -620 -191
-666 -20 -103 34 -198 131 -233 24 -9 219 -66 433 -128 340 -97 395 -111 439
-106 71 9 123 47 152 110 33 73 215 710 215 753 0 67 -44 140 -104 171 -43 23
-847 253 -881 253 -16 -1 -47 -7 -69 -15z m307 -514 c4 -4 16 -29 25 -54 l18
-47 42 31 41 30 62 -17 62 -18 -76 -73 -77 -73 35 -101 35 -101 -32 7 c-91 20
-118 41 -141 109 -2 5 -21 -3 -42 -17 l-40 -26 -68 21 c-38 11 -65 24 -60 27
4 4 40 35 79 70 l72 62 -24 92 c-13 51 -24 94 -24 95 0 7 105 -10 113 -17z"/>
<path d="M3160 21991 c-66 -34 -83 -74 -190 -443 -107 -372 -115 -419 -81
-486 21 -42 43 -63 86 -85 58 -29 833 -247 879 -247 58 0 93 14 132 51 44 43
52 64 160 434 84 290 95 337 92 392 -3 52 -9 69 -35 100 -16 21 -43 46 -59 55
-16 9 -210 69 -431 132 -434 125 -484 134 -553 97z m429 -361 c51 -17 101 -35
111 -40 17 -9 13 -26 -51 -246 -38 -131 -70 -239 -72 -241 -7 -7 -147 41 -147
50 0 5 21 80 46 165 25 85 43 160 40 167 -2 7 -21 15 -40 19 -22 4 -36 13 -36
22 0 32 34 134 45 134 6 0 53 -14 104 -30z"/>
<path d="M4425 21634 c-39 -20 -74 -53 -90 -84 -7 -14 -58 -184 -115 -379 -90
-311 -102 -360 -96 -405 7 -62 46 -122 97 -148 19 -10 214 -70 433 -133 406
-118 467 -129 533 -104 37 14 71 46 93 89 10 19 61 186 115 370 106 363 115
419 79 480 -36 62 -82 88 -230 131 -76 22 -262 76 -412 120 -288 83 -350 93
-407 63z m474 -391 c79 -46 101 -148 51 -231 -17 -27 -67 -65 -155 -118 -15
-8 -7 -13 49 -28 l68 -19 -7 -56 c-4 -31 -10 -60 -15 -64 -7 -7 -60 6 -294 74
l-68 20 7 47 c9 59 21 82 44 82 31 0 164 49 204 76 61 40 70 90 21 113 -27 12
-59 1 -80 -27 -9 -12 -18 -10 -62 12 -29 15 -52 29 -52 32 0 16 43 74 67 89
63 42 149 41 222 -2z"/>
<path d="M5695 21279 c-38 -10 -94 -64 -111 -104 -7 -17 -56 -181 -110 -365
-105 -362 -112 -409 -77 -477 36 -70 70 -84 483 -204 212 -62 407 -116 434
-122 89 -19 179 20 216 93 25 48 209 679 217 742 11 93 -44 177 -138 212 -109
39 -816 236 -848 235 -20 0 -50 -5 -66 -10z m430 -388 c118 -34 130 -39 128
-59 -6 -54 -31 -90 -82 -118 l-52 -28 30 -23 c55 -43 65 -141 21 -204 -26 -36
-96 -69 -146 -69 -55 0 -143 46 -171 89 -13 19 -23 48 -23 66 0 31 2 33 53 41
51 9 52 9 67 -21 28 -55 100 -59 108 -6 5 30 -20 55 -67 70 l-39 11 12 43 c11
36 21 46 66 71 l54 29 -78 23 c-42 12 -79 24 -82 26 -2 3 3 28 11 56 14 46 18
52 38 47 12 -3 81 -23 152 -44z"/>
<path d="M6960 20918 c-46 -13 -84 -42 -108 -81 -31 -49 -222 -717 -222 -774
0 -63 33 -128 81 -160 49 -32 842 -263 904 -263 76 0 137 37 172 104 30 57
213 709 213 758 0 79 -36 139 -103 175 -29 14 -757 228 -832 244 -49 10 -61
10 -105 -3z m404 -599 c55 -16 100 -30 102 -31 1 -2 -7 -27 -18 -57 -24 -62
-9 -62 -203 -5 l-122 36 13 46 c8 26 16 52 19 59 4 13 1 14 209 -48z"/>
<path d="M2840 20839 c-31 -13 -78 -56 -95 -89 -7 -14 -59 -184 -115 -379 -89
-308 -102 -361 -96 -404 8 -69 43 -118 107 -150 30 -15 229 -77 443 -138 347
-99 396 -111 452 -107 72 4 123 36 153 96 10 20 62 188 116 372 122 420 124
456 31 537 -41 36 -5 25 -483 163 -389 112 -450 124 -513 99z m477 -381 c49
-14 119 -98 133 -159 38 -156 -94 -339 -243 -339 -65 0 -104 19 -153 72 -50
54 -68 103 -68 183 0 77 18 128 62 177 70 78 159 100 269 66z"/>
<path d="M3204 20320 c-87 -35 -83 -200 5 -200 73 0 120 132 66 185 -26 26
-37 29 -71 15z"/>
<path d="M4082 20469 c-24 -12 -55 -38 -68 -59 -36 -55 -225 -708 -226 -782 0
-69 29 -127 82 -162 54 -36 828 -259 900 -260 74 0 131 30 164 86 26 45 215
684 224 754 10 95 -50 180 -151 213 -213 69 -800 231 -838 231 -25 0 -63 -9
-87 -21z m317 -734 c49 -25 55 -77 15 -124 -33 -39 -74 -41 -109 -6 -35 34
-33 78 4 116 33 33 50 35 90 14z"/>
<path d="M5357 20115 c-44 -15 -83 -48 -103 -86 -28 -55 -214 -718 -214 -765
0 -62 31 -125 78 -158 44 -30 844 -266 905 -266 70 0 142 43 174 104 8 16 60
182 114 370 99 342 111 403 88 463 -14 39 -64 88 -107 107 -63 27 -834 246
-866 246 -17 -1 -48 -7 -69 -15z m326 -501 c61 -20 114 -38 116 -39 3 -3 -28
-105 -32 -105 -6 0 -241 70 -243 73 -7 6 28 107 37 107 5 0 60 -16 122 -36z
m20 -138 c31 -10 57 -23 57 -30 0 -18 -21 -79 -31 -90 -5 -5 -56 5 -125 25
l-116 33 5 31 c3 16 10 42 16 57 l10 27 63 -18 c35 -10 89 -26 121 -35z"/>
<path d="M6585 19742 c-41 -26 -81 -74 -94 -114 -56 -175 -201 -700 -200 -727
1 -82 56 -157 132 -185 23 -9 214 -65 424 -126 410 -118 453 -126 522 -90 77
39 77 39 202 470 97 333 107 396 77 455 -18 33 -61 77 -93 93 -11 5 -193 61
-405 123 -425 125 -504 139 -565 101z m430 -478 l52 -17 -13 -45 c-18 -59 -18
-59 11 -66 13 -3 35 -10 48 -15 l25 -10 -16 -55 c-17 -62 -24 -65 -90 -42
l-41 15 -16 -50 c-9 -27 -20 -51 -23 -53 -13 -7 -112 18 -112 28 0 6 7 32 14
58 l14 46 -44 11 c-49 13 -48 10 -33 82 12 56 9 54 92 34 20 -5 26 -2 31 19
12 48 26 76 37 76 7 0 36 -7 64 -16z"/>
<path d="M44431 26570 c37 -92 83 -267 99 -378 8 -54 11 -143 7 -250 -5 -172
-19 -250 -66 -372 l-21 -55 22 -15 c89 -58 166 -163 183 -247 l7 -33 -115 0
-114 0 -6 97 c-4 53 -11 101 -15 105 -5 5 -25 -16 -46 -47 -133 -201 -386
-344 -609 -345 -43 0 -67 -6 -88 -21 -94 -66 -283 -129 -392 -129 l-54 0 10
-67 c12 -90 2 -303 -18 -378 -9 -33 -33 -94 -53 -135 -51 -104 -176 -229 -287
-287 -69 -36 -84 -49 -107 -91 -53 -95 -145 -228 -222 -319 -184 -220 -472
-421 -756 -528 -41 -16 -78 -31 -82 -34 -4 -3 -32 -118 -63 -256 -579 -2582
-1530 -4720 -2840 -6385 -753 -957 -1642 -1784 -2629 -2446 l-173 -116 -7
-151 c-16 -345 -74 -637 -186 -940 -58 -158 -186 -412 -278 -552 -43 -66 -81
-125 -85 -132 -4 -6 101 -144 259 -340 146 -180 270 -332 274 -337 10 -10 92
113 169 251 223 404 361 928 361 1374 l0 95 158 106 c877 589 1655 1282 2347
2088 1050 1223 1911 2780 2532 4579 234 679 466 1510 629 2256 20 94 42 175
48 181 6 6 40 21 76 34 284 100 597 319 782 549 66 81 171 239 207 308 17 35
34 49 89 77 147 74 243 171 307 309 53 115 69 213 63 403 l-5 161 87 6 c107 7
217 42 322 102 65 38 86 45 130 45 109 1 251 44 365 111 80 48 200 170 257
262 181 292 203 696 59 1110 -90 262 -264 539 -478 764 l-84 88 30 -75z"/>
<path d="M14340 26155 c0 -4 14 -27 31 -51 39 -57 92 -171 115 -249 17 -56 18
-133 21 -1114 3 -935 2 -1064 -12 -1140 -20 -105 -64 -213 -122 -299 -23 -35
-48 -82 -53 -103 -11 -39 -48 -69 -86 -69 -9 0 -33 -13 -53 -28 -79 -61 -187
-110 -301 -137 -56 -13 -218 -15 -1125 -15 -1000 0 -1064 1 -1135 19 -41 10
-84 22 -94 26 -18 8 -18 6 3 -24 37 -52 165 -147 254 -190 169 -81 78 -76
1302 -76 1229 0 1138 -6 1310 79 210 104 361 288 427 521 l23 80 0 1070 0
1070 -22 80 c-13 44 -44 123 -70 175 -40 81 -62 109 -148 195 -79 80 -117 110
-182 143 -46 24 -83 40 -83 37z"/>
<path d="M35945 23048 c-12 -25 -39 -55 -64 -73 l-43 -30 -9905 -3 -9905 -2 4
-64 c5 -75 35 -124 98 -156 39 -20 69 -20 10043 -18 l10003 3 36 24 c105 73
117 227 23 310 -44 38 -91 51 -190 51 l-80 0 -20 -42z"/>
<path d="M14340 20384 c0 -3 11 -20 24 -37 37 -49 92 -165 118 -248 l23 -74 3
-1040 c3 -1096 2 -1133 -42 -1263 -29 -83 -47 -120 -97 -194 -21 -31 -41 -69
-45 -85 -9 -38 -41 -71 -77 -79 -16 -3 -58 -25 -92 -48 -79 -55 -189 -100
-290 -121 -71 -14 -197 -15 -1145 -13 -933 3 -1071 6 -1115 19 -27 9 -61 19
-75 24 -20 6 -14 -4 30 -50 100 -103 215 -172 361 -217 l74 -23 1040 -3 c738
-2 1063 0 1119 8 213 31 427 162 546 335 49 72 106 202 127 290 17 75 18 144
18 1125 0 1189 4 1121 -85 1305 -78 161 -193 280 -351 365 -58 30 -69 35 -69
24z"/>
<path d="M1760 18756 c0 -26 92 -220 143 -301 136 -219 373 -437 628 -578 101
-56 272 -122 404 -157 66 -18 565 -161 1110 -320 832 -242 2180 -633 2900
-841 300 -87 385 -108 494 -124 57 -9 105 -14 107 -12 2 2 -38 70 -89 153 -79
127 -226 375 -308 520 l-23 41 -90 6 c-116 7 -274 38 -412 81 -60 18 -145 43
-189 55 -98 27 -1484 429 -2885 836 -575 167 -1090 315 -1144 330 -186 48
-363 129 -534 242 -115 77 -112 75 -112 69z"/>
<path d="M35955 17299 c-10 -29 -63 -87 -99 -107 -29 -16 -637 -17 -9928 -20
l-9898 -2 0 -50 c0 -66 29 -123 82 -157 l42 -28 9985 -3 c7057 -2 9997 0
10023 8 110 31 168 160 119 265 -39 85 -100 115 -230 115 -82 0 -90 -2 -96
-21z"/>
<path d="M32643 16144 c-663 -80 -1259 -450 -1624 -1007 -435 -664 -490 -1524
-144 -2236 116 -238 245 -420 435 -611 111 -112 195 -181 380 -312 183 -130
283 -191 425 -259 350 -167 733 -242 1119 -218 298 18 566 87 835 215 63 30
117 54 120 54 4 0 32 -30 62 -67 1203 -1471 1729 -2105 1767 -2136 39 -30 52
-36 77 -31 59 12 178 76 222 120 46 46 93 132 93 171 0 15 -243 322 -712 900
-392 483 -797 984 -900 1112 l-187 235 80 80 c359 355 586 814 655 1326 20
156 18 428 -6 613 -71 544 -360 1062 -793 1420 -144 119 -400 295 -543 373
-402 219 -903 314 -1361 258z m562 -103 c32 -7 20 -9 -60 -10 -495 -6 -986
-159 -1350 -421 -294 -212 -589 -568 -750 -905 -163 -342 -226 -667 -211
-1085 3 -102 13 -225 21 -275 15 -97 18 -121 10 -114 -10 11 -36 206 -45 348
-18 259 11 534 85 816 104 401 292 726 577 1000 363 351 837 584 1308 644 86
11 364 12 415 2z m181 -127 c982 -128 1755 -919 1863 -1907 17 -151 15 -435
-4 -562 -137 -931 -840 -1659 -1762 -1826 -167 -30 -482 -37 -653 -15 -255 33
-465 98 -700 217 -455 230 -778 558 -996 1014 -143 299 -208 593 -207 935 1
599 233 1150 658 1558 383 369 863 577 1400 606 96 5 281 -4 401 -20z"/>
<path d="M8307 15343 c318 -460 632 -859 970 -1233 1807 -2005 4209 -3195
7023 -3479 829 -84 1779 -86 2655 -5 259 24 567 62 575 71 7 7 310 834 310
846 0 2 -18 1 -40 -4 -22 -5 -144 -27 -272 -49 -1208 -206 -2449 -257 -3633
-149 -1452 131 -2802 507 -4035 1124 -1038 519 -1928 1167 -2760 2012 -301
304 -516 544 -754 841 -54 67 -100 122 -103 122 -2 0 26 -44 64 -97z"/>
<path d="M30660 11774 c-731 -150 -1646 -281 -2515 -358 l-280 -25 -22 -28
c-13 -15 -119 -157 -237 -314 -2119 -2834 -4869 -5485 -7866 -7583 -678 -475
-1526 -1016 -2051 -1309 -187 -104 -235 -120 -386 -125 l-123 -4 0 -92 c0
-109 19 -195 61 -279 84 -169 226 -285 409 -332 91 -24 281 -16 365 14 162 58
947 533 1615 976 2568 1704 5053 3900 7096 6270 513 596 1069 1290 1492 1865
79 107 149 201 156 208 8 8 75 18 182 27 661 58 1349 144 1959 246 253 42 718
129 820 152 l60 14 85 -76 c149 -133 224 -191 495 -377 356 -245 770 -406
1220 -476 191 -30 617 -32 799 -5 166 25 293 52 419 88 59 18 109 30 111 28
175 -219 1526 -1855 1552 -1880 105 -98 249 -181 364 -210 94 -23 240 -17 350
15 191 55 373 158 496 281 206 207 315 531 260 777 -28 124 -74 198 -301 477
-115 143 -211 259 -212 258 0 -1 3 -27 9 -57 6 -30 8 -91 5 -135 -24 -334
-254 -653 -581 -805 -338 -158 -565 -141 -837 64 -80 60 -139 130 -855 1001
-635 774 -772 936 -789 932 -11 -3 -90 -23 -176 -45 -263 -69 -401 -86 -709
-86 -206 -1 -292 3 -385 17 -340 51 -639 143 -917 283 -257 129 -632 390 -844
588 -40 36 -74 66 -75 65 -2 -1 -101 -21 -219 -45z"/>
</g>
</svg>
